<svg width="128" height="128" viewBox="0 0 128 128" fill="none" xmlns="http://www.w3.org/2000/svg">
<path d="M45.5728 11.9895C44.337 10.7504 42.6733 10.0383 40.9282 10.0015C39.1831 9.96471 37.4912 10.6061 36.2048 11.792C34.9184 12.9779 34.1368 14.6169 34.0227 16.3676C33.9086 18.1184 34.4709 19.8459 35.5923 21.1903L35.9889 21.623L78.6353 64.4969L35.9855 107.371C34.7859 108.576 34.0798 110.19 34.0064 111.894C33.9329 113.597 34.4977 115.266 35.589 116.572L35.9855 117.004C37.1848 118.21 38.7904 118.92 40.4851 118.994C42.1798 119.067 43.8404 118.5 45.139 117.403L45.5694 117.004L93.0145 69.3136C94.214 68.108 94.9202 66.4942 94.9936 64.7907C95.0671 63.0873 94.5023 61.4181 93.411 60.1127L93.0145 59.6801L45.5694 11.9895H45.5728Z" fill="currentColor"/>
</svg>
