<svg width="128" height="128" viewBox="0 0 128 128" fill="none" xmlns="http://www.w3.org/2000/svg">
<path d="M82.4272 11.9895C83.663 10.7504 85.3267 10.0383 87.0718 10.0015C88.8169 9.96471 90.5088 10.6061 91.7952 11.792C93.0816 12.9779 93.8632 14.6169 93.9773 16.3676C94.0914 18.1184 93.5291 19.8459 92.4077 21.1903L92.0111 21.623L49.3647 64.4969L92.0145 107.371C93.2141 108.576 93.9202 110.19 93.9936 111.894C94.0671 113.597 93.5023 115.266 92.411 116.572L92.0145 117.004C90.8152 118.21 89.2096 118.92 87.5149 118.994C85.8202 119.067 84.1596 118.5 82.861 117.403L82.4306 117.004L34.9855 69.3136C33.786 68.108 33.0798 66.4942 33.0064 64.7907C32.9329 63.0873 33.4977 61.4181 34.589 60.1127L34.9855 59.6801L82.4306 11.9895H82.4272Z" fill="currentColor"/>
</svg>
