<svg width="128" height="128" viewBox="0 0 128 128" fill="none" xmlns="http://www.w3.org/2000/svg">
<path d="M72.5032 64.5089L111.134 25.8838C113.622 23.3872 113.622 19.369 111.134 16.8724C108.647 14.3759 104.613 14.3759 102.125 16.8724L63.494 55.4976L24.8747 16.8724C22.3874 14.3759 18.3529 14.3759 15.8655 16.8724C13.3782 19.369 13.3782 23.3872 15.8655 25.8838L54.4849 64.497L15.8655 103.122C13.3782 105.619 13.3782 109.637 15.8655 112.134C17.1032 113.382 18.7337 114 20.3761 114C22.0065 114 23.637 113.382 24.8866 112.134L63.494 73.5203L102.113 112.134C103.351 113.382 104.993 114 106.624 114C108.254 114 109.885 113.382 111.123 112.134C113.61 109.637 113.61 105.619 111.123 103.122L72.5032 64.5089Z" fill="currentColor"/>
</svg>
