<svg t="1782820546363" class="icon" viewBox="0 0 1024 1024" version="1.1" xmlns="http://www.w3.org/2000/svg" p-id="1718" width="128" height="128"><path d="M129 222.2l140.2-29.8 67.3 43.8L373.6 411c2.3 10.7-4.6 21.2-15.2 23.5L182 471.9c-10.7 2.3-21.2-4.6-23.5-15.2l-44.9-211c-2.1-10.7 4.7-21.2 15.4-23.5z" fill="#13BE93" p-id="1719"></path><path d="M269.2 192.4l67.3 43.7-36.1 7.7c-10.7 2.3-21.2-4.6-23.5-15.2l-7.7-36.2z" fill="#69DCC0" p-id="1720"></path><path d="M175.99357 333.951985a21.3 21.3 0 1 0 42.192426-5.878703 21.3 21.3 0 1 0-42.192426 5.878703Z" fill="#E9FFFA" p-id="1721"></path><path d="M324.2 158.5h151.5l59.6 59.7v188.7c0 10.9-8.9 19.8-19.8 19.8H324.2c-10.9 0-19.8-8.9-19.8-19.8V178.3c0-11 8.9-19.8 19.8-19.8z" fill="#9769E1" p-id="1722"></path><path d="M475.7 158.5l59.6 59.6h-39.8c-10.9 0-19.8-8.9-19.8-19.8v-39.8z" fill="#C29CFF" p-id="1723"></path><path d="M444.7 311.5l-27.5 19.2c-6.7 4.7-16 3-20.7-3.7-1.7-2.5-2.7-5.5-2.7-8.5v-38.4c0-8.2 6.6-14.8 14.8-14.8 3 0 6 0.9 8.5 2.7l27.5 19.2c6.7 4.7 8.4 13.9 3.7 20.7-0.9 1.3-2.2 2.6-3.6 3.6z" fill="#FFFFFF" p-id="1724"></path><path d="M533.1 132.3H695l63.2 63.3v201.3c0 10.9-8.9 19.8-19.8 19.8H533.1c-10.9 0-19.8-8.9-19.8-19.8V152.1c0-11 8.9-19.8 19.8-19.8z" fill="#EE5F5F" p-id="1725"></path><path d="M695 132.3l63.2 63.2h-43.4c-10.9 0-19.8-8.9-19.8-19.8v-43.4z" fill="#FFB29E" p-id="1726"></path><path d="M573.2 313.3V259c3.4-0.6 7.9-1.1 13.6-1.1 7 0 12.1 1.6 15.4 4.6 3 2.6 4.8 6.6 4.8 11.5 0 5-1.5 8.9-4.2 11.7-3.7 4-9.9 6-16.8 6-2.1 0-4.1-0.1-5.7-0.5v22h-7.1z m7.1-49.1v21.4c1.5 0.4 3.5 0.6 5.9 0.6 8.6 0 13.8-4.2 13.8-11.7 0-7.3-5.1-10.8-13-10.8-3.1-0.1-5.5 0.1-6.7 0.5z m36.3 48.9v-54c4.3-0.7 9.5-1.1 15.1-1.1 10.2 0 17.4 2.4 22.3 6.8 4.9 4.5 7.7 10.8 7.7 19.7 0 9-2.8 16.3-7.9 21.4-5.1 5.1-13.6 7.9-24.3 7.9-5.1 0-9.3-0.3-12.9-0.7z m7.1-48.8v43.4c1.8 0.3 4.4 0.4 7.2 0.4 15.2 0 23.4-8.5 23.4-23.3 0.1-13-7.3-21.2-22.3-21.2-3.7 0-6.4 0.3-8.3 0.7z m47.2 49h7.1v-24.9h20.8v-5.9H678v-18.3h22.5v-5.9h-29.6v55z" fill="#FFFFFF" p-id="1727"></path><path d="M770.1 158.6l148.3 39.7 42.6 73.9-49.5 184.6c-2.8 10.6-13.7 16.8-24.2 14l-187.4-50.2c-10.6-2.8-16.8-13.7-14-24.2l60-223.8c2.8-10.6 13.7-16.8 24.2-14z" fill="#559CEE" p-id="1728"></path><path d="M918.5 198.3l42.6 73.8-39.1-10.4c-10.6-2.8-16.8-13.7-14-24.2l10.5-39.2z" fill="#A4CEFD" p-id="1729"></path><path d="M108.8 347.6h692.6v544.2H108.8c-10.9 0-19.8-8.9-19.8-19.8V367.4c0-11 8.9-19.8 19.8-19.8z" fill="#57DCC5" p-id="1730"></path><path d="M801.4 347.6h168.2V872c0 10.9-8.9 19.8-19.8 19.8H801.4V347.6z" fill="#12C1A3" p-id="1731"></path><path d="M801.4 347.6h167.3l54.9 170.1c1.7 5.2-1.2 10.8-6.4 12.5-1 0.3-2 0.5-3 0.5H867.6c-4.3 0-8.1-2.8-9.4-6.9l-56.8-176.2z" fill="#ABF2E6" p-id="1732"></path><path d="M801.4 347.6L726.6 586c-2.6 8.3-10.2 13.9-18.9 13.9H89V367.4c0-10.9 8.9-19.8 19.8-19.8h692.6z" fill="#3DCFB6" p-id="1733"></path><path d="M99.9 347.6h701.5l-88.6 172.3c-3.4 6.6-10.2 10.7-17.6 10.7H9.9c-5.5 0-9.9-4.4-9.9-9.9 0-1.6 0.4-3.1 1.1-4.5l81.2-157.9c3.4-6.6 10.2-10.7 17.6-10.7z" fill="#ABF3E6" p-id="1734"></path></svg>