<svg t="1782905125312" class="icon" viewBox="0 0 1024 1024" version="1.1" xmlns="http://www.w3.org/2000/svg" p-id="39528" width="128" height="128"><path d="M495.4 582c-29.7 0-54-24.3-54-54v-32c0-29.7 24.3-54 54-54h154.7V257c0-49.5-40.5-90-90-90h-374c-49.5 0-90 40.5-90 90v510c0 49.5 40.5 90 90 90h374c49.5 0 90-40.5 90-90V582H495.4zM922.4 525.7L752.3 705.6c-12.4 13.1-34.5 4.3-34.5-13.7V332.1c0-18.1 22.1-26.9 34.5-13.7l170.1 179.9c7.3 7.7 7.3 19.7 0 27.4z" fill="currentColor" p-id="39529"></path></svg>