<svg width="128" height="128" viewBox="0 0 128 128" fill="none" xmlns="http://www.w3.org/2000/svg">
<path d="M38.6667 19.3516C40.1334 17.8849 101.395 19.1996 103.307 19.3836C103.445 19.3969 103.581 19.4183 103.717 19.4396C103.797 19.4529 103.883 19.4636 103.963 19.4796C104.064 19.4983 104.165 19.5276 104.264 19.5516C104.381 19.5783 104.499 19.6049 104.611 19.6396L104.851 19.7249C104.976 19.7676 105.101 19.8076 105.224 19.8583C105.317 19.8983 105.408 19.9463 105.499 19.9916C105.6 20.0369 105.704 20.0823 105.803 20.1356C105.92 20.1996 106.035 20.2689 106.149 20.3409C106.216 20.3836 106.288 20.4209 106.355 20.4663C106.445 20.5276 106.533 20.5943 106.621 20.6609C106.885 20.8556 107.141 21.0663 107.379 21.3036C107.632 21.5569 107.856 21.8316 108.059 22.1116L108.208 22.3143C108.269 22.4049 108.32 22.5009 108.376 22.5943C108.435 22.6876 108.493 22.7809 108.547 22.8796C108.589 22.9596 108.627 23.0396 108.664 23.1196C108.72 23.2423 108.779 23.3596 108.829 23.4849C108.856 23.5436 108.872 23.6049 108.896 23.6636C108.949 23.8076 109.003 23.9489 109.048 24.0956C109.069 24.1623 109.08 24.2289 109.099 24.2956C109.136 24.4369 109.173 24.5756 109.203 24.7196C109.219 24.7996 109.229 24.8796 109.243 24.9623C109.296 25.3089 109.333 25.6583 109.333 26.0183V90.0183C109.333 91.7864 108.631 93.4821 107.381 94.7323C106.131 95.9826 104.435 96.6849 102.667 96.6849C100.899 96.6849 99.2029 95.9826 97.9527 94.7323C96.7025 93.4821 96.0001 91.7864 96.0001 90.0183V42.1116L30.0454 108.064C29.4304 108.7 28.6948 109.208 27.8814 109.558C27.0681 109.907 26.1933 110.091 25.3081 110.099C24.4229 110.106 23.545 109.938 22.7257 109.602C21.9064 109.267 21.1621 108.772 20.5361 108.146C19.9102 107.52 19.4151 106.776 19.0799 105.957C18.7447 105.137 18.5761 104.259 18.5837 103.374C18.5914 102.489 18.7753 101.614 19.1247 100.801C19.4741 99.9875 19.982 99.2519 20.6187 98.6369L86.5734 32.6849H38.6667C36.9742 32.6852 35.3449 32.0416 34.1093 30.8848C32.8737 29.728 32.1244 28.1445 32.0134 26.4556L32.0001 26.0183C32.0001 24.2502 32.7025 22.5545 33.9527 21.3042C35.2029 20.054 36.8986 19.3516 38.6667 19.3516Z" fill="currentColor"/>
</svg>
