<svg width="100" height="35" viewBox="0 0 100 35" fill="none" xmlns="http://www.w3.org/2000/svg">
<path d="M97.1839 2.55814C97.9949 3.36861 98.6382 4.33095 99.0772 5.39015C99.5161 6.44936 99.742 7.58468 99.742 8.73123C99.742 9.87778 99.5161 11.0131 99.0772 12.0723C98.6382 13.1315 97.9949 14.0938 97.1839 14.9043C71.0544 41.028 28.6864 41.028 2.55698 14.9043C0.919772 13.2671 -5.52974e-09 11.0466 0 8.73123C5.52974e-09 6.41587 0.919772 4.19534 2.55698 2.55814C4.19418 0.920931 6.41471 0.0011597 8.73007 0.00115967C11.0454 0.00115964 13.266 0.920931 14.9032 2.55814C24.1775 11.8312 36.7554 17.0407 49.8704 17.0407C62.9854 17.0407 75.5634 11.8312 84.8377 2.55814C85.6482 1.74714 86.6105 1.1038 87.6697 0.66486C88.7289 0.225923 89.8642 0 91.0108 0C92.1573 0 93.2927 0.225923 94.3519 0.66486C95.4111 1.1038 96.3734 1.74714 97.1839 2.55814Z" fill="url(#paint0_linear_506_977)"/>
<defs>
<linearGradient id="paint0_linear_506_977" x1="99.742" y1="34.497" x2="79.3457" y2="-25.9511" gradientUnits="userSpaceOnUse">
<stop stop-color="#0AB6DE"/>
<stop offset="1" stop-color="#C7F3FD"/>
</linearGradient>
</defs>
</svg>
