<svg width="128" height="128" viewBox="0 0 128 128" fill="none" xmlns="http://www.w3.org/2000/svg">
<path d="M103.077 49C106.504 49 109.791 50.3577 112.215 52.7745C114.638 55.1913 116 58.4691 116 61.887V105.113C116 108.531 114.638 111.809 112.215 114.226C109.791 116.642 106.504 118 103.077 118H23.9231C20.4957 118 17.2086 116.642 14.7851 114.226C12.3615 111.809 11 108.531 11 105.113V61.887C11 58.4691 12.3615 55.1913 14.7851 52.7745C17.2086 50.3577 20.4957 49 23.9231 49H103.077ZM62.6923 67.7409C60.9786 67.7409 59.3351 68.4197 58.1233 69.6281C56.9115 70.8365 56.2308 72.4754 56.2308 74.1843V89.4876L56.2469 89.9676C56.3652 91.6355 57.129 93.1923 58.3769 94.309C59.6249 95.4257 61.2593 96.0149 62.9348 95.9522C64.6104 95.8894 66.1958 95.1796 67.3563 93.9728C68.5168 92.7659 69.1614 91.1564 69.1539 89.4844V74.1811L69.1377 73.7011C69.0154 72.08 68.2833 70.565 67.0879 69.4596C65.8926 68.3543 64.3225 67.7403 62.6923 67.7409Z" fill="currentColor"/>
<path d="M62.5016 4C79.604 4 93.5235 17.8622 93.9905 35.1497L94 36.0447V56.5085C93.9961 58.1778 93.3574 59.7809 92.2176 60.9819C91.0777 62.1829 89.5253 62.8886 87.8854 62.9512C86.2455 63.0139 84.6454 62.4286 83.4202 61.318C82.1951 60.2073 81.4399 58.6575 81.313 56.9932L81.2939 56.5085V36.0447C81.277 31.0474 79.3374 26.2555 75.8904 22.6949C72.4434 19.1343 67.7629 17.088 62.8512 16.9943C57.9395 16.9005 53.1868 18.7667 49.6109 22.1932C46.035 25.6197 43.92 30.3343 43.7188 35.3274L43.7061 36.0447V56.5085C43.7135 58.1855 43.0797 59.7997 41.9387 61.0102C40.7978 62.2206 39.2389 62.9325 37.5915 62.9954C35.9441 63.0584 34.3371 62.4674 33.1101 61.3474C31.8831 60.2274 31.1321 58.666 31.0159 56.9932L31 56.5085V36.0447C31 18.3469 45.1038 4 62.5016 4Z" fill="currentColor"/>
</svg>
