<svg width="128" height="128" viewBox="0 0 128 128" fill="none" xmlns="http://www.w3.org/2000/svg">
<path d="M63.9999 43.6367C69.1438 43.6367 74.0769 45.6801 77.7142 49.3174C81.3514 52.9546 83.3948 57.8878 83.3948 63.0316C83.3948 68.1755 81.3514 73.1086 77.7142 76.7459C74.0769 80.3832 69.1438 82.4265 63.9999 82.4265C58.8561 82.4265 53.9229 80.3832 50.2856 76.7459C46.6484 73.1086 44.605 68.1755 44.605 63.0316C44.605 57.8878 46.6484 52.9546 50.2856 49.3174C53.9229 45.6801 58.8561 43.6367 63.9999 43.6367ZM109.254 50.1007C112.683 50.1007 115.972 51.4631 118.397 53.8881C120.822 56.3131 122.185 59.6021 122.185 63.0316C122.185 66.4611 120.822 69.7501 118.397 72.1752C115.972 74.6002 112.683 75.9625 109.254 75.9625C105.824 75.9625 102.535 74.6002 100.11 72.1752C97.6852 69.7501 96.3228 66.4611 96.3228 63.0316C96.3228 59.6021 97.6852 56.3131 100.11 53.8881C102.535 51.4631 105.824 50.1007 109.254 50.1007ZM18.7461 50.1007C22.1756 50.1007 25.4646 51.4631 27.8896 53.8881C30.3146 56.3131 31.677 59.6021 31.677 63.0316C31.677 66.4611 30.3146 69.7501 27.8896 72.1752C25.4646 74.6002 22.1756 75.9625 18.7461 75.9625C15.3166 75.9625 12.0276 74.6002 9.60256 72.1752C7.17755 69.7501 5.81519 66.4611 5.81519 63.0316C5.81519 59.6021 7.17755 56.3131 9.60256 53.8881C12.0276 51.4631 15.3166 50.1007 18.7461 50.1007Z" fill="currentColor"/>
</svg>
