<svg width="128" height="128" viewBox="0 0 128 128" fill="none" xmlns="http://www.w3.org/2000/svg">
<path d="M113.786 54.6111C113.547 52.7072 112.373 51.037 110.262 50.5179C110.183 50.4986 110.102 50.4901 110.021 50.4901C109.941 50.4901 109.86 50.4813 109.781 50.4633C105.471 49.4763 102.349 47.0591 99.9429 42.9756C97.7572 39.3396 97.0286 34.7339 98.4857 30.6131C99.2143 28.9161 98.7286 26.7345 97.0286 25.2802C92.4142 20.9169 86.8286 17.5233 80.5143 15.3416C78.8142 14.6144 76.8714 15.0992 75.1714 16.796C72.5 20.1897 68.3714 21.8865 63.7571 21.8865C59.6285 21.8865 55.7429 19.9472 52.3429 16.5537C50.4 14.6144 48.457 14.8567 47 15.3416C40.6857 18.008 35.3429 21.1593 30.7285 25.0378C29.0285 26.2498 28.3 28.4314 29.0285 30.3706C30.2428 34.9763 29.7571 39.3396 27.5714 43.2181C25.6658 46.5466 22.1246 49.1757 17.8647 50.4189C17.6989 50.4672 17.5471 50.4473 17.3875 50.5131C17.1974 50.5915 17.0335 50.7771 16.8546 50.8783C15.5894 51.5936 14.7105 52.707 14.037 54.2187C13.993 54.3173 13.9714 54.4243 13.9714 54.5322C13.9714 54.5846 13.9661 54.6373 13.9559 54.6887C13.2393 58.292 13 61.4208 13 64.5496C13 67.7009 13.2428 71.3369 13.9714 74.2458C14.2099 76.1496 15.3845 77.8198 17.4955 78.3388C17.5739 78.3581 17.655 78.3666 17.7357 78.3666C17.8164 78.3666 17.8974 78.3754 17.9761 78.3934C22.2859 79.3804 25.4078 81.7978 27.8143 85.8811C30 89.5172 30.7285 94.1229 29.2714 98.2438C28.5428 99.9406 29.0285 102.122 30.7285 103.577C35.1174 107.727 40.3851 111 46.5316 113.187C47.1611 113.411 47.789 113.758 48.4571 113.758H49.1857C50.4 113.758 51.8571 113.273 53.0714 112.061C55.7429 108.909 59.8714 106.97 64.4858 106.97C68.6143 106.97 72.5 108.909 75.8999 112.303C76.8714 113.273 78.0856 114 79.3 114C79.7858 114 80.5143 114 81.0001 113.758C85.2201 111.976 89.0062 109.977 92.4309 107.689C95.7794 105.453 100.388 102.498 98.9714 98.7286C97.7572 94.1228 98.2429 89.7596 100.429 85.8811C102.334 82.5525 105.875 79.9235 110.135 78.6803C110.301 78.6319 110.453 78.6518 110.613 78.5861C110.803 78.5077 110.966 78.3221 111.145 78.2209C112.411 77.5056 113.289 76.3921 113.963 74.8805C114.007 74.7819 114.029 74.6749 114.029 74.567C114.029 74.5146 114.034 74.4619 114.044 74.4105C114.761 70.8072 115 67.6784 115 64.5496C114.757 61.156 114.514 57.7623 113.786 54.6111ZM63.7571 81.2754C63.7572 81.2754 63.7572 81.2754 63.7571 81.2754C54.2857 81.2753 46.7572 73.7609 46.7572 64.3072C46.7572 54.8534 54.2858 47.3389 63.7573 47.3389C73.2287 47.3389 80.7572 54.8534 80.7572 64.3072C80.7572 73.7609 73.2287 81.2754 63.7572 81.2755C63.7571 81.2755 63.7571 81.2754 63.7571 81.2754Z" fill="currentColor"/>
</svg>
