<svg width="120" height="33" viewBox="0 0 120 33" fill="none" xmlns="http://www.w3.org/2000/svg">
<path d="M55.9126 0C58.6566 0 61.7259 0.266666 64.2059 1.64267C65.8494 2.53033 67.1563 3.93272 67.9259 5.63467C68.7713 7.53867 68.7259 9.38933 68.4433 10.7813C67.9419 13.2373 66.4833 15.3013 65.5686 16.5093C64.8486 17.456 64.0139 18.4213 63.2379 19.304C74.5659 18.8107 85.7313 16.0747 94.4593 13.2453C98.3559 11.983 102.199 10.5613 105.979 8.984C107.313 8.42584 108.636 7.84172 109.947 7.232L110.134 7.13867L110.174 7.12267L110.177 7.12C111.711 6.40966 113.462 6.32851 115.056 6.89394C116.649 7.45936 117.958 8.62637 118.701 10.145C119.445 11.6635 119.564 13.4129 119.033 15.0182C118.502 16.6236 117.364 17.9572 115.862 18.7333L113.019 12.9253C115.713 18.4213 115.854 18.7173 115.859 18.7333V18.736L115.849 18.7413L115.822 18.752C115.797 18.7646 115.772 18.777 115.747 18.7893L115.481 18.9147C113.99 19.6097 112.486 20.2748 110.969 20.9093C106.859 22.6238 102.682 24.1691 98.4459 25.5413C88.1526 28.88 74.0939 32.3227 59.6833 32.3227C56.7793 32.3227 53.7419 32.04 51.2726 30.8027C49.6624 30.0202 48.3265 28.769 47.4406 27.2133C46.5644 25.6244 46.2249 23.7949 46.4726 21.9973C46.8139 19.344 48.2939 17.144 49.1953 15.912C49.8966 14.952 50.7073 13.9893 51.4779 13.104C42.4059 13.7787 32.7259 16.344 24.7153 19.0507C20.9009 20.3419 17.134 21.7695 13.4219 23.3307C12.0698 23.8999 10.7274 24.492 9.39527 25.1067L9.19793 25.1973L9.1526 25.2187H9.14727C7.60729 25.9213 5.85314 25.9919 4.26171 25.4152C2.67028 24.8385 1.36856 23.6605 0.636247 22.1344C-0.0960682 20.6083 -0.200543 18.8559 0.345269 17.2536C0.891082 15.6513 2.04363 14.327 3.55527 13.5653L3.56593 13.56L3.58993 13.5493L3.66193 13.512L3.92593 13.3893C4.14993 13.2827 4.4726 13.136 4.88593 12.9467C5.7126 12.5733 6.90727 12.0427 8.40593 11.4133C12.4064 9.7315 16.4659 8.19362 20.5766 6.80267C30.3659 3.496 43.5473 0 55.9099 0H55.9126Z" fill="url(#paint0_linear_507_998)"/>
<defs>
<linearGradient id="paint0_linear_507_998" x1="119.36" y1="32.3227" x2="103.781" y2="-26.6478" gradientUnits="userSpaceOnUse">
<stop stop-color="#0AB6DE"/>
<stop offset="1" stop-color="#C7F3FD"/>
</linearGradient>
</defs>
</svg>
