<svg width="128" height="128" viewBox="0 0 128 128" fill="none" xmlns="http://www.w3.org/2000/svg">
<path d="M77.9989 53.4989H106.001C106.92 53.4974 107.831 53.6775 108.681 54.0287C109.531 54.3799 110.303 54.8954 110.953 55.5457C111.603 56.196 112.119 56.9682 112.47 57.818C112.821 58.6679 113.001 59.5788 113 60.4984V106.001C113.001 106.92 112.821 107.831 112.47 108.681C112.119 109.531 111.603 110.303 110.953 110.953C110.303 111.603 109.531 112.119 108.681 112.47C107.831 112.821 106.92 113.001 106.001 113H60.5022C59.5822 113.002 58.671 112.822 57.8207 112.471C56.9703 112.12 56.1977 111.605 55.547 110.955C54.8964 110.304 54.3805 109.532 54.0291 108.682C53.6776 107.832 53.4974 106.92 53.4989 106.001V77.9989H67.4978C68.8777 78.0019 70.2446 77.7323 71.52 77.2056C72.7954 76.679 73.9542 75.9056 74.9299 74.9299C75.9056 73.9542 76.679 72.7954 77.2056 71.52C77.7323 70.2446 78.0019 68.8777 77.9989 67.4978V53.4989ZM15 21.9995C14.9985 21.0799 15.1785 20.169 15.5298 19.3191C15.881 18.4692 16.3965 17.697 17.0468 17.0468C17.697 16.3965 18.4692 15.881 19.3191 15.5298C20.169 15.1785 21.0799 14.9985 21.9995 15H67.5016C68.4212 14.9985 69.3321 15.1785 70.182 15.5298C71.0318 15.881 71.804 16.3965 72.4543 17.0468C73.1046 17.697 73.6201 18.4692 73.9713 19.3191C74.3225 20.169 74.5026 21.0799 74.5011 21.9995V67.5016C74.5026 68.4212 74.3225 69.3321 73.9713 70.182C73.6201 71.0318 73.1046 71.804 72.4543 72.4543C71.804 73.1046 71.0318 73.6201 70.182 73.9713C69.3321 74.3225 68.4212 74.5026 67.5016 74.5011H21.9995C21.0799 74.5026 20.169 74.3225 19.3191 73.9713C18.4692 73.6201 17.697 73.1046 17.0468 72.4543C16.3965 71.804 15.881 71.0318 15.5298 70.182C15.1785 69.3321 14.9985 68.4212 15 67.5016V21.9995ZM28.9989 52.2136H34.11V49.5035H41.4826V62.4395H46.8952V49.5073H54.4337V51.7688H59.9971V34.6188H46.8952V30.8496C46.8733 29.8775 47.0278 28.9095 47.3513 27.9925C47.4317 27.8525 47.4818 27.6971 47.4983 27.5365C47.4983 27.4385 47.1478 27.3405 46.4467 27.2387H41.3281V34.6188H28.9989V52.2174V52.2136ZM34.11 38.8328H41.4826V45.4478H34.1138V38.8366L34.11 38.8328ZM54.4186 45.4478H46.8802V38.8366H54.4186V45.4516V45.4478ZM76.7136 98.839L78.8206 92.9741H89.7928L91.8998 98.839H97.9306L88.157 71.0183H81.0746L70.9995 98.839H76.7136ZM80.3245 88.3115L84.384 76.4309H84.5348L88.304 88.3115H80.3245ZM106.001 43.0016H99.0011C99.0011 39.2889 97.5262 35.7282 94.9009 33.1029C92.2756 30.4776 88.7149 29.0027 85.0022 29.0027V21.9995C87.76 21.9995 90.4909 22.5427 93.0388 23.5982C95.5866 24.6537 97.9017 26.2008 99.8516 28.1511C101.802 30.1014 103.348 32.4167 104.403 34.9647C105.458 37.5128 106.001 40.2438 106.001 43.0016ZM21.9995 85.0021H28.9989C28.9989 86.8405 29.361 88.6609 30.0645 90.3593C30.768 92.0577 31.7992 93.601 33.0991 94.9009C34.399 96.2008 35.9423 97.2319 37.6407 97.9355C39.3391 98.639 41.1595 99.0011 42.9978 99.0011V106.001C37.4287 106.001 32.0877 103.788 28.1498 99.8502C24.2118 95.9123 21.9995 90.5713 21.9995 85.0021Z" fill="url(#paint0_linear_519_962)"/>
<defs>
<linearGradient id="paint0_linear_519_962" x1="15" y1="15" x2="113" y2="113" gradientUnits="userSpaceOnUse">
<stop stop-color="#C7F3FD"/>
<stop offset="1" stop-color="#0AB6DE"/>
</linearGradient>
</defs>
</svg>
