<svg width="128" height="128" viewBox="0 0 128 128" fill="none" xmlns="http://www.w3.org/2000/svg">
<path d="M69.8671 15.2809C69.8671 13.6151 69.2053 12.0176 68.0274 10.8396C66.8495 9.66174 65.2519 9 63.5861 9C61.9203 9 60.3227 9.66174 59.1448 10.8396C57.9669 12.0176 57.3052 13.6151 57.3052 15.2809V53.9329C57.3052 55.5988 57.9669 57.1963 59.1448 58.3742C60.3227 59.5522 61.9203 60.2139 63.5861 60.2139C65.2519 60.2139 66.8495 59.5522 68.0274 58.3742C69.2053 57.1963 69.8671 55.5988 69.8671 53.9329V15.2809Z" fill="currentColor"/>
<path d="M38.3659 29.9687C39.6985 28.9693 40.5795 27.4813 40.8151 25.8322C41.0507 24.1832 40.6215 22.5081 39.622 21.1754C38.6226 19.8428 37.1346 18.9617 35.4855 18.7262C33.8365 18.4906 32.1614 18.9197 30.8287 19.9192C21.6641 26.7959 14.8952 36.3815 11.4807 47.3186C8.06618 58.2557 8.17915 69.9899 11.8036 80.8592C15.428 91.7285 22.3802 101.182 31.6756 107.881C40.9709 114.58 52.1382 118.185 63.596 118.185C75.0537 118.185 86.221 114.58 95.5163 107.881C104.812 101.182 111.764 91.7285 115.388 80.8592C119.013 69.9899 119.126 58.2557 115.711 47.3186C112.297 36.3815 105.528 26.7959 96.3632 19.9192C95.7033 19.4231 94.9522 19.0617 94.1527 18.8558C93.3532 18.65 92.521 18.6036 91.7035 18.7193C90.0526 18.9531 88.5622 19.8331 87.5602 21.1657C87.064 21.8256 86.7027 22.5767 86.4968 23.3762C86.2909 24.1757 86.2445 25.008 86.3603 25.8254C86.5941 27.4763 87.4741 28.9667 88.8067 29.9687C95.8645 35.2621 101.078 42.6419 103.708 51.0628C106.339 59.4837 106.253 68.5188 103.463 76.8883C100.673 85.2578 95.321 92.5373 88.164 97.6958C81.0071 102.854 72.4085 105.63 63.5863 105.63C54.7641 105.63 46.1655 102.854 39.0085 97.6958C31.8516 92.5373 26.4991 85.2578 23.7093 76.8883C20.9195 68.5188 20.8337 59.4837 23.4642 51.0628C26.0947 42.6419 31.3081 35.2621 38.3659 29.9687Z" fill="currentColor"/>
</svg>
