<svg width="128" height="128" viewBox="0 0 128 128" fill="none" xmlns="http://www.w3.org/2000/svg">
<path d="M64.9544 7.46244L65.2877 7.74616L80.4377 22.9453C80.8552 23.3651 81.1127 23.9185 81.1653 24.5092C81.2179 25.0998 81.0622 25.6903 80.7255 26.1776L80.4377 26.5323L65.2877 41.7314C64.9608 42.0607 64.5499 42.2934 64.1 42.404C63.6502 42.5147 63.1786 42.4991 62.737 42.3589C62.2954 42.2187 61.9007 41.9594 61.5961 41.6092C61.2916 41.2591 61.0889 40.8316 61.0103 40.3736L60.975 39.9379V29.8812C52.2087 30.4336 43.8607 33.8371 37.1954 39.5763C30.5302 45.3155 25.9109 53.0776 24.0373 61.6869C22.1637 70.2961 23.1379 79.2834 26.8122 87.2874C30.4865 95.2914 36.6608 101.876 44.3999 106.044C52.1389 110.211 61.021 111.735 69.7007 110.384C78.3805 109.034 86.3849 104.882 92.5016 98.5574C98.6183 92.2332 102.514 84.0814 103.598 75.3367C104.683 66.5921 102.897 57.7311 98.5116 50.096C97.8525 48.933 97.6787 47.5556 98.0281 46.2645C98.3775 44.9734 99.2217 43.8733 100.377 43.2044C101.531 42.5354 102.903 42.3519 104.192 42.6939C105.482 43.0358 106.584 43.8755 107.258 45.0296C111.687 52.7225 114.013 61.4523 114 70.3362C114 98.3178 91.3911 121 63.5 121C35.6088 121 13 98.3178 13 70.3362C13 43.2057 34.2605 21.0555 60.975 19.7332V9.53966C60.9738 9.07505 61.1 8.61906 61.3398 8.22158C61.5796 7.8241 61.9237 7.50043 62.3345 7.28598C62.7453 7.07153 63.207 6.97457 63.6691 7.00569C64.1312 7.03681 64.5758 7.19482 64.9544 7.46244Z" fill="currentColor"/>
</svg>
