<svg width="128" height="128" viewBox="0 0 128 128" fill="none" xmlns="http://www.w3.org/2000/svg">
<path d="M64 20C70.3047 19.9954 76.5485 21.2515 82.3742 23.6963C88.1998 26.1411 93.4931 29.7268 97.9512 34.2481C102.409 38.7695 105.945 44.1379 108.355 50.0462C110.766 55.9546 112.005 62.2869 112 68.6811C112 71.8135 111.737 74.8542 110.445 77.4842C109.583 79.2361 107.029 81.9229 102.769 85.5315C99.4346 87.8032 96.9965 91.7526 95.5793 96.1344L95.3596 97.2048C94.8771 103.474 89.7209 107.799 82.9364 107.991L82.4625 108H45.5375C38.842 108 33.6913 104.068 32.821 98.5065C32.6946 97.699 32.6011 96.8838 32.4035 96.0908C30.9561 91.6346 28.742 88.0522 25.6965 85.8504C22.6467 83.6529 19.3901 80.7957 17.848 78.0434C16.3015 75.2911 16 72.0407 16 68.6811C15.9955 62.2869 17.2339 55.9546 19.6446 50.0462C22.0552 44.1379 25.5907 38.7695 30.0488 34.2481C34.5069 29.7268 39.8002 26.1411 45.6258 23.6963C51.4515 21.2515 57.6953 19.9954 64 20ZM81.8414 59.9481C81.4574 59.5948 80.8645 59.6025 80.4896 59.9655C76.1045 64.2905 73.1753 68.9564 71.771 73.9368C70.4701 78.5327 69.7378 83.8102 69.5655 89.7692C69.5512 90.4772 70.1161 91.0615 70.8242 91.0712L75.364 91.1334C76.0219 91.1424 76.564 90.6192 76.5783 89.9614C76.7377 84.4786 77.3967 79.6948 78.5512 75.61C79.641 71.7655 81.9413 68.0826 85.5123 64.5396C85.8609 64.2003 85.853 63.6378 85.4949 63.3085L81.8414 59.9481ZM47.5104 59.9655C47.1355 59.6025 46.5426 59.5948 46.1586 59.9481L44.5014 61.4723C43.065 62.7935 43.0654 65.0426 44.3403 66.5205C46.8692 69.4521 48.5635 72.4793 49.4488 75.61C50.6032 79.6904 51.2623 84.4786 51.4217 89.9614C51.436 90.6192 51.9781 91.1424 52.636 91.1334L54.9383 91.1018C56.883 91.0752 58.4461 89.4753 58.3413 87.5332C58.0689 82.4847 57.3663 77.9525 56.229 73.9368C54.8204 68.9564 51.8955 64.2949 47.5104 59.9655Z" fill="#8F959E"/>
</svg>
