<svg width="128" height="128" viewBox="0 0 128 128" fill="none" xmlns="http://www.w3.org/2000/svg">
<path d="M102.009 17.107C104.924 17.107 107.719 18.2606 109.781 20.3139C111.842 22.3673 113 25.1523 113 28.0562V101.051C113 103.955 111.842 106.74 109.781 108.793C107.719 110.846 104.924 112 102.009 112H87.3532C84.438 112 81.6423 110.846 79.581 108.793C77.5197 106.74 76.3617 103.955 76.3617 101.051V28.0562C76.3617 25.1523 77.5197 22.3673 79.581 20.3139C81.6423 18.2606 84.438 17.107 87.3532 17.107H102.009ZM37.8914 68.2032C43.7217 68.2032 49.3132 70.5104 53.4358 74.6171C57.5584 78.7239 59.8744 84.2938 59.8744 90.1016C59.8744 95.9094 57.5584 101.479 53.4358 105.586C49.3132 109.693 43.7217 112 37.8914 112C32.0612 112 26.4697 109.693 22.3471 105.586C18.2245 101.479 15.9085 95.9094 15.9085 90.1016C15.9085 84.2938 18.2245 78.7239 22.3471 74.6171C26.4697 70.5104 32.0612 68.2032 37.8914 68.2032ZM43.4238 18.4866C43.4286 18.4866 43.4333 18.4879 43.4375 18.4903C45.0688 19.439 46.4367 20.7953 47.3881 22.4283L60.2775 44.4362C61.2522 46.1002 61.7689 47.9909 61.7755 49.9174C61.7821 51.844 61.2782 53.7381 60.3148 55.4086C59.3515 57.0792 57.9627 58.4669 56.2887 59.4317C54.6147 60.3966 52.7148 60.9043 50.7808 60.9038H24.9948C23.0608 60.9043 21.1608 60.3966 19.4869 59.4317C17.8129 58.4669 16.4241 57.0792 15.4607 55.4086C14.4973 53.7381 13.9935 51.844 14.0001 49.9174C14.0066 47.9909 14.5234 46.1002 15.4981 44.4362L28.3948 22.4283C29.8634 19.9227 32.2703 18.1003 35.0869 17.3612C37.9011 16.6228 40.8943 17.0262 43.4102 18.4829C43.4143 18.4853 43.419 18.4866 43.4238 18.4866Z" fill="#8F959E"/>
</svg>
