<svg width="128" height="128" viewBox="0 0 128 128" fill="none" xmlns="http://www.w3.org/2000/svg">
<path d="M102.342 24.0692C101.844 23.5705 101.345 22.7703 100.664 22.0332C99.736 21.029 98.5662 20.26 97.8078 19.1223C97.0494 17.9847 96.3574 16.7184 95.2585 15.9049C94.4436 15.3016 93.4463 15 92.4489 15H37.9723C36.3234 15 34.6745 15 33.8501 15.8245C33.0256 16.6489 32.2012 16.6489 31.3767 17.4734L28.9034 19.9468L25.1649 23.6855C24.9107 23.9396 24.7174 24.2096 24.5364 24.5201C23.2847 26.6678 24.4082 29.016 26.8941 29.016H100.019C102.398 29.016 104.024 25.7511 102.342 24.0692ZM103.167 79.3722H23.8933C23.5995 79.3722 23.3121 79.3787 23.0314 79.3918C18.2699 79.6139 14 83.6748 14 88.4414V104.106C14 104.547 14.0147 104.973 14.0462 105.385C14.4121 110.174 19.0895 114 23.8933 114H102.279C105.577 114 108.05 113.176 109.699 111.527C111.348 109.878 112.172 107.404 112.172 104.931V88.4414C112.172 83.6634 108.05 79.398 103.272 79.3725C103.237 79.3723 103.202 79.3722 103.167 79.3722ZM72.0914 97.9544C71.8979 98.772 71.5711 99.8381 70.7495 100.014C70.5942 100.047 70.4084 100.047 70.1256 100.047H57.7589C57.7378 100.047 57.7166 100.047 57.6955 100.047C56.0109 100.046 54.4611 98.4342 54.4611 96.7495C54.4611 95.4032 55.7739 94.2995 57.12 94.2789C57.3015 94.2761 57.5116 94.2761 57.7589 94.2761H69.3011C69.7094 94.2761 70.1177 94.2761 70.4259 94.3763C71.016 94.5681 71.3939 95.3701 71.6714 95.925C71.9489 96.48 72.1604 96.9952 72.1402 97.6154C72.1365 97.7284 72.1181 97.8414 72.0914 97.9544ZM110.587 40.622C108.938 38.9731 106.464 38.1486 103.167 38.1486H23.8933C20.5955 38.1486 18.1222 38.9731 16.4733 40.622C14.8244 42.271 14 43.9199 14 46.3933V62.8828C14 65.3562 14.8244 67.8296 16.4733 69.4785C18.1222 71.1275 20.5955 71.952 23.8933 71.952H103.103C106.401 71.952 108.874 71.1275 110.523 69.4785C112.172 67.8296 112.997 65.3562 112.997 62.8828V46.3933C113.06 43.9199 112.236 42.271 110.587 40.622ZM69.3011 57.9359H57.7589C57.6941 57.9359 57.6292 57.9359 57.5647 57.9355C56.3428 57.9279 55.5223 56.6896 54.9528 55.6084C54.9069 55.5212 54.8578 55.4259 54.8041 55.3206C54.5764 54.8733 54.4253 54.2759 54.5006 53.7796C54.6293 52.9317 55.522 52.4076 56.3605 52.2279C56.6555 52.1646 57.0584 52.1646 57.7589 52.1646H69.3011C70.4624 52.1646 72.1488 53.0961 72.5228 54.1955C72.533 54.2254 72.5422 54.2556 72.5505 54.2859C72.6124 54.5138 72.5617 54.7537 72.4825 54.9762C71.6951 57.1872 70.8724 57.9359 69.3011 57.9359Z" fill="#8F959E"/>
</svg>
